<?xml version="1.0" encoding="utf-8"?>
<svg viewBox="185.764 192.535 85.567 94.253" xmlns="http://www.w3.org/2000/svg">
  <path style="fill: none; stroke-width: 3px; stroke: rgb(0, 0, 0);" d="M 198.527 225.308 C 207.69 208.229 215.924 201.135 229.533 200.84 C 244.052 200.526 252.724 209.277 260.375 224.576 C 262.409 228.642 262.286 233.039 263.366 237.357 C 265.248 244.886 265.662 257.517 260.073 263.053 C 253.215 269.844 246.981 273.999 237.33 276.727 C 229.979 278.804 222.558 279.87 214.789 279.87 C 209.923 279.87 199.458 277.112 196.275 273.928 C 188.711 266.365 187.779 256.718 187.882 244.277 C 187.947 236.411 195.748 220.432 202.529 213.519 C 208.784 207.144 221.546 193.143 233.598 195.675 C 247.229 198.539 255.152 219.308 257.296 226.356 C 259.54 233.73 267.82 243.065 264.177 246.64 C 261.731 249.04 249.64 257.466 244.282 261.808 C 238.475 266.514 231.131 284.07 222.099 284.526 C 214.958 284.886 195.216 269.547 194.007 265.628 C 191.373 257.086 200.116 251.104 202.263 240.746 C 203.747 233.586 200.892 223.013 206.747 217.786 C 213.78 211.508 224.752 201.93 238.266 204.926 C 250.783 207.701 265.307 221.377 268.017 232.414 C 270.38 242.041 265.052 253.588 253.251 259.378 C 248.264 261.825 248.633 268.899 243.658 271.34 C 236.122 275.037 228.297 270.054 213.281 274.639 C 199.947 278.71 177.701 237.274 199.154 212.15 C 211.05 198.218 219.658 207.076 234.701 209.798 C 241.352 211.002 260.16 210.238 265.344 216.293 C 271 222.899 265.173 245.747 262.137 250.216 C 260.571 252.519 259.822 254.674 258.75 257.304 C 256.451 262.942 254.698 273.758 250.232 276.498 C 246.502 278.786 240.571 284.314 229.134 280.477 C 224.764 279.012 218.847 282.186 214.744 280.134 C 209.26 277.393 202.264 281.456 199.524 275.167 C 197.686 270.948 206.338 264.788 205.252 258.702 C 203.027 246.239 191.999 254.741 194.611 236.144 C 196.162 225.102 231.751 206.593 248.105 216.405 C 258.308 222.527 259.62 231.503 259.933 242.911 C 260.293 256.056 264.58 264.84 259.462 268.963 C 245.177 280.469 222.739 281.402 210.42 268.949 C 188.077 246.363 191.507 238.393 198.527 225.308 Z" transform="matrix(0.999986, -0.005217, 0.005217, 0.999986, -1.248757, 1.193922)"/>
  <rect x="172.401" y="185.471" width="85.029" height="93.766" style="fill: none;" transform="matrix(0.999983, -0.00575, 0.00575, 0.999983, 12.299937, 8.547388)"/>
</svg>